<?xml version="1.0" encoding="UTF-8"?>
<!-- Generator: visioncortex VTracer 0.6.4 -->
<svg version="1.1" xmlns="http://www.w3.org/2000/svg" width="1408" height="768">
<path d="M0 0 C464.64 0 929.28 0 1408 0 C1408 253.44 1408 506.88 1408 768 C943.36 768 478.72 768 0 768 C0 514.56 0 261.12 0 0 Z " fill="#161616" transform="translate(0,0)"/>
<path d="M0 0 C0.74780731 -0.00201416 1.49561462 -0.00402832 2.26608276 -0.00610352 C29.69891457 0.04395035 53.96154997 10.33202193 73.6875 29.5 C85.3018376 41.27791982 93.25953651 56.65773062 97.6875 72.5 C98.13802734 74.07201172 98.13802734 74.07201172 98.59765625 75.67578125 C105.25923695 103.03473828 100.59671485 135.08190641 85.94921875 159.1875 C73.22586136 178.3660485 56.1043199 190.56971527 34.6875 198.5 C33.86765625 198.850625 33.0478125 199.20125 32.203125 199.5625 C7.78418277 208.66272692 -22.93941086 204.80942743 -46.3125 194.5 C-70.18959104 183.38000935 -86.69919601 163.87404523 -95.859375 139.5234375 C-100.34124133 126.84593222 -101.72669366 114.82147174 -101.6875 101.4375 C-101.68662384 100.70733673 -101.68574768 99.97717346 -101.68484497 99.22488403 C-101.58579963 74.19794295 -94.38445918 49.93448303 -77 31.1328125 C-64.94386543 19.467386 -51.39080371 11.20417339 -34.32543945 11.18530273 C-21.07850971 11.45525705 -11.08372749 16.99808853 -1.5625 25.8125 C5.14614189 32.8841978 11.6875 43.57038301 11.6875 53.5 C11.04312988 53.47905273 10.39875977 53.45810547 9.73486328 53.43652344 C6.76090668 53.35239002 3.78720158 53.30103655 0.8125 53.25 C-0.20070313 53.21648437 -1.21390625 53.18296875 -2.2578125 53.1484375 C-13.4183172 53.00535411 -21.0497607 56.2937145 -29.0546875 64.03515625 C-39.31232156 75.23336921 -42.06638281 89.84689212 -41.6328125 104.6171875 C-40.42483175 119.26027118 -36.49121188 133.41642995 -25.3125 143.5 C-14.80872164 151.54041571 -3.0727839 151.73767781 9.6875 150.5 C19.75259249 148.08727721 26.59843945 142.83423042 32.375 134.4375 C38.68439279 123.75132121 40.03598362 114.68286944 40.125 102.4375 C40.13523193 101.34945068 40.14546387 100.26140137 40.15600586 99.14038086 C39.99975935 84.6487899 36.17792306 71.83660454 25.6875 61.5 C25.0275 61.17 24.3675 60.84 23.6875 60.5 C23.50379074 58.44305862 23.4185391 56.37716978 23.375 54.3125 C22.52422792 40.56067592 17.02988158 30.0699285 8.6875 19.5 C7.87345703 18.46746094 7.87345703 18.46746094 7.04296875 17.4140625 C0.89820662 10.53815145 -8.75213303 5.68187225 -17.3125 2.5 C-13.3564363 -1.4560637 -5.44902103 0.0100178 0 0 Z " fill="#F4C91A" transform="translate(834.3125,278.5)"/>
<path d="M0 0 C5.5357495 3.60048748 8.43705391 8.12366174 10.5 14.3125 C10.96894096 23.4295847 10.48065031 32.21096252 9.03515625 41.2265625 C7.17428482 54.3704608 7.28312012 67.66206558 7.25976562 80.90698242 C7.25003017 84.23967171 7.21889977 87.57175063 7.1875 90.90429688 C6.87803828 116.32091232 6.87803828 116.32091232 18.3515625 138.28125 C26.39921859 144.82197447 35.36437519 146.25319198 45.5 145.3125 C53.03495862 144.10560187 58.59921905 141.21451577 63.5 135.3125 C72.52726738 121.8841839 73.03203007 105.63544004 72.875 90 C72.87200897 89.21866699 72.86901794 88.43733398 72.86593628 87.63232422 C72.78209067 68.70949239 72.25225657 48.90340375 68.5 30.3125 C67.33792853 11.16689634 67.33792853 11.16689634 74.16015625 3.4296875 C82.81325454 -5.06349727 92.51231959 -6.19928525 104.12890625 -6.10327148 C110.55416048 -5.91375573 116.4673445 -5.01200946 122.5 -2.6875 C126.70762346 11.72584844 128.67736775 26.43679011 130.5 41.3125 C130.62149414 42.29154297 130.74298828 43.27058594 130.86816406 44.27929688 C133.93873146 70.2553805 135.49075916 99.6839563 129.5 125.3125 C129.35014648 125.98909668 129.20029297 126.66569336 129.04589844 127.36279297 C124.99978 145.3040209 117.54644672 161.20114559 104.5 174.3125 C103.77425781 175.07304687 103.04851562 175.83359375 102.30078125 176.6171875 C85.06440338 193.53166358 60.98189608 198.57058027 37.62158203 198.5612793 C14.55711253 198.30896061 -5.94577078 191.69446674 -23.5 176.3125 C-24.18835938 175.71953125 -24.87671875 175.1265625 -25.5859375 174.515625 C-38.96069098 162.14529965 -46.67479249 143.79246165 -50.5 126.3125 C-50.65098145 125.63010254 -50.80196289 124.94770508 -50.95751953 124.24462891 C-58.73975133 86.52557014 -54.29296745 41.80545821 -46.875 4.375 C-46.7409375 3.67955078 -46.606875 2.98410156 -46.46875 2.26757812 C-46.1496589 0.61514209 -45.825465 -1.03630755 -45.5 -2.6875 C-31.72550389 -8.80949827 -13.0848654 -7.06197883 0 0 Z " fill="#F3C81A" transform="translate(1005.5,283.6875)"/>
<path d="M0 0 C0.79470703 -0.01611328 1.58941406 -0.03222656 2.40820312 -0.04882812 C12.07987617 -0.05669767 20.10784137 3.16973782 27.5625 9.3125 C30.5625 13.3125 30.5625 13.3125 30.5625 16.3125 C31.42230469 15.79300781 32.28210938 15.27351563 33.16796875 14.73828125 C47.33275122 6.32263896 61.15507221 0.89270328 77.8125 1 C78.72708984 1.00491455 79.64167969 1.0098291 80.58398438 1.01489258 C103.59162554 1.40955215 124.80119499 11.24114826 140.81640625 27.6171875 C155.63129915 44.8384133 158.74772711 64.65614728 157.3515625 86.6328125 C155.12591303 104.78422042 143.56811454 122.03830702 129.5625 133.3125 C111.97109237 145.6704765 91.546314 150.50146065 70.2890625 147.9140625 C63.31314308 146.40945243 58.04065529 142.87287615 53.5625 137.3125 C50.66037328 131.90309374 50.0490977 127.43251688 50.125 121.4375 C50.12983398 120.25148193 50.12983398 120.25148193 50.13476562 119.04150391 C50.27988914 112.97008641 51.43347852 108.59272374 54.5625 103.3125 C55.42875 103.4775 56.295 103.6425 57.1875 103.8125 C68.36257885 105.35389019 78.87452616 104.97195738 88.875 99.5 C95.20003621 94.35171471 99.04253093 88.56324712 100.03125 80.48046875 C100.10464209 71.13215177 99.5757852 63.52587197 92.80078125 56.48046875 C85.77874378 50.62639695 77.30389529 48.67224281 68.296875 48.96484375 C60.54930695 49.94989169 53.69566107 53.41932015 48.5625 59.3125 C44.44865013 65.97658129 43.99709359 72.24429949 44.08007812 79.91577148 C44.07616562 81.04219055 44.07225311 82.16860962 44.06822205 83.3291626 C44.06226912 85.76154969 44.06537694 88.19397259 44.0766449 90.62634087 C44.09396757 94.4820213 44.08636499 98.33695599 44.0723877 102.19264221 C44.04494442 111.07273317 44.05405909 119.95265108 44.06508636 128.83276367 C44.07556277 137.62495027 44.07029399 146.41672563 44.03843689 155.20887947 C44.03136544 158.99675725 44.04799207 162.78405238 44.06555176 166.57188416 C44.05984151 168.90787057 44.05302307 171.24385463 44.04492188 173.57983398 C44.05623642 174.62377823 44.06755096 175.66772247 44.07920837 176.74330139 C44.01791864 184.1684293 42.88379861 191.37722242 37.94905853 197.22420406 C30.82682621 204.12805987 21.58514835 204.83747729 12.125 204.8125 C11.15240234 204.84085938 10.17980469 204.86921875 9.17773438 204.8984375 C0.95097546 204.92041949 -5.82890406 202.73603974 -11.875 197 C-16.36201077 189.28234148 -17.56402189 181.72053876 -17.55775452 172.83340454 C-17.55903615 171.73540624 -17.55903615 171.73540624 -17.56034368 170.61522615 C-17.56198463 168.17396013 -17.55649988 165.73276354 -17.55102539 163.29150391 C-17.55074319 161.53694663 -17.55090189 159.78238924 -17.5514679 158.02783203 C-17.5517546 153.27213029 -17.54587831 148.5164538 -17.53889394 143.76075792 C-17.53263934 138.78796549 -17.53205493 133.81517247 -17.53086853 128.84237671 C-17.52776143 119.42900684 -17.5195564 110.01564859 -17.50951904 100.60228384 C-17.49833863 89.88409143 -17.49284259 79.16589847 -17.48782361 68.44770169 C-17.47737328 46.40262798 -17.45978585 24.35756472 -17.4375 2.3125 C-11.4194601 0.7734693 -6.21368801 -0.02507542 0 0 Z " fill="#F3C81A" transform="translate(559.4375,277.6875)"/>
<path d="M0 0 C4.43430752 3.06771516 7.79499206 6.02235832 10 11 C13.52615489 9.71414653 16.66965683 8.07305101 19.90673828 6.18164062 C37.87570892 -4.11898255 59.16336268 -5.87737433 79.25 -1.1640625 C91.86331043 2.75131928 103.00833947 8.29661954 113 17 C113.80824219 17.69738281 114.61648438 18.39476562 115.44921875 19.11328125 C125.87504814 28.79567289 135.30645407 44.1971092 136.16113281 58.7421875 C136.20696606 62.16156119 136.2353076 65.58034435 136.25 69 C136.2809375 70.75376953 136.2809375 70.75376953 136.3125 72.54296875 C136.36134748 83.54586379 134.42052779 93.34746141 129.3125 103.125 C128.78922119 104.14219116 128.78922119 104.14219116 128.25537109 105.17993164 C118.45496278 123.66076447 102.28226735 135.498107 82.59326172 141.54199219 C70.34654017 145.06980261 54.14620291 146.5559461 42.23046875 141.25390625 C36.339268 137.94204033 32.16010624 134.21929825 29.66015625 127.8125 C27.25644749 117.5718473 28.50687517 107.46765589 33 98 C33.98355469 98.32226562 34.96710938 98.64453125 35.98046875 98.9765625 C45.04889045 101.55191222 56.39390828 101.37908681 64.91796875 97.26953125 C71.75672503 93.09955791 76.62375561 88.18757478 78.640625 80.20703125 C80.1671825 70.83197705 79.60338404 62.85614404 74 55 C68.67886505 48.60081693 61.10271268 45.6460799 52.9765625 44.6171875 C44.6174419 44.29485637 37.39683255 46.25577349 30.625 51.25 C25.31109898 56.81694393 22.87505142 63.20062929 22.87542725 70.85549927 C22.87286423 71.83100235 22.87030121 72.80650543 22.86766052 73.81156921 C22.86976028 74.87551407 22.87186005 75.93945892 22.87402344 77.03564453 C22.8721553 78.16133347 22.87028717 79.2870224 22.86836243 80.44682312 C22.8643578 82.89294328 22.86228353 85.33906718 22.86190033 87.78519058 C22.8580424 93.66317275 22.8319505 99.54104581 22.80868387 105.4189775 C22.77364316 114.43851263 22.74701652 123.45793013 22.74951172 132.47753906 C22.75127643 139.21912813 22.72688627 145.96019268 22.6876297 152.70168686 C22.67718353 155.26678288 22.67563538 157.83193161 22.68328094 160.39703751 C22.69293185 163.99452012 22.67166167 167.59062946 22.64355469 171.18798828 C22.65375137 172.23978775 22.66394806 173.29158722 22.67445374 174.3752594 C22.55980959 182.59464818 20.43145156 189.38306457 14.6875 195.4375 C7.16649731 199.81017598 0.68867476 200.52138246 -7.875 200.5 C-8.89980469 200.52835938 -9.92460937 200.55671875 -10.98046875 200.5859375 C-18.87622132 200.60600294 -25.63969483 198.90275024 -31.65185547 193.52148438 C-37.60008604 186.80845053 -38.15699174 179.05774118 -38.12025452 170.44497681 C-38.12110894 169.70481083 -38.12196337 168.96464486 -38.12284368 168.20204961 C-38.12448484 165.73314482 -38.11899953 163.26430865 -38.11352539 160.79541016 C-38.1132432 159.0211487 -38.11340188 157.24688712 -38.1139679 155.47262573 C-38.11425462 150.66320681 -38.10837803 145.85381286 -38.10139394 141.04439974 C-38.09513964 136.01555286 -38.09455496 130.98670539 -38.09336853 125.95785522 C-38.09026134 116.43823751 -38.08205619 106.9186313 -38.07201904 97.39901865 C-38.0608389 86.55990954 -38.05534266 75.72079989 -38.05032361 64.88168645 C-38.03987308 42.58778455 -38.02228548 20.293893 -38 -2 C-25.89031499 -5.54577916 -11.43391168 -6.06156369 0 0 Z " fill="#F4C91A" transform="translate(285,282)"/>
<path d="M0 0 C1.06976074 0.00563965 2.13952148 0.0112793 3.24169922 0.01708984 C4.0513916 0.02434082 4.86108398 0.0315918 5.6953125 0.0390625 C5.76552667 16.81622927 5.81836127 33.59334807 5.85074902 50.37062645 C5.86618978 58.16135965 5.88722563 65.95200134 5.92163086 73.74267578 C5.95161901 80.53641564 5.97090777 87.33008917 5.97757798 94.12389338 C5.98147438 97.7181098 5.9905725 101.31213658 6.01250267 104.90629196 C6.03683856 108.92768362 6.03727648 112.9487497 6.03588867 116.97021484 C6.0466745 118.14985809 6.05746033 119.32950134 6.068573 120.54489136 C6.03484784 129.60250591 5.0189689 139.06682596 -1.3046875 146.0390625 C-11.19007574 152.3988927 -21.78960425 152.89028015 -33.3046875 152.0390625 C-41.08868403 150.31345363 -46.4060188 147.49848793 -50.82563782 140.69917297 C-56.53493306 130.43085254 -55.7325661 118.39579748 -55.66796875 107.02734375 C-55.66744886 105.20517477 -55.66797153 103.38300522 -55.66947937 101.56083679 C-55.66939019 97.7627208 -55.65906958 93.96481945 -55.64086914 90.16674805 C-55.61813532 85.31843026 -55.61765265 80.47042395 -55.62438679 75.62206745 C-55.62773989 71.86695119 -55.62107226 68.11190493 -55.61125755 64.35680199 C-55.60743205 62.56957554 -55.60624623 60.78234129 -55.6078434 58.99511147 C-55.60821751 56.49309253 -55.59549981 53.99146204 -55.5793457 51.48950195 C-55.58182312 50.76460068 -55.58430054 50.0396994 -55.58685303 49.29283142 C-55.45886275 36.76615816 -51.13940846 26.25029901 -42.51953125 17.1328125 C-30.98710607 6.23090792 -15.85469739 -0.10874278 0 0 Z " fill="#F4C91A" transform="translate(499.3046875,330.9609375)"/>
<path d="M0 0 C1.18758911 0.00640503 1.18758911 0.00640503 2.39916992 0.01293945 C10.5093349 0.2481733 15.90064556 2.71331906 22.0625 7.9375 C22.76375 8.783125 23.465 9.62875 24.1875 10.5 C24.950625 11.36625 25.71375 12.2325 26.5 13.125 C29.42865375 18.9823075 29.0651851 25.46536702 27.1875 31.6875 C23.83484624 39.26201405 17.037188 44.55997448 9.515625 47.6484375 C1.19779658 49.77670815 -9.23399685 50.43136347 -17.0625 46.4375 C-22.57144703 42.61695324 -26.7330277 37.91638976 -28.8125 31.5 C-29.66679377 24.47680596 -29.785622 18.09756131 -25.4296875 12.27734375 C-18.00107366 4.11304593 -11.12655711 -0.09080497 0 0 Z " fill="#F4C91B" transform="translate(474.8125,278.5)"/>
<path d="M0 0 C-1.16290805 3.48872415 -2.13967609 4.09976864 -5.0625 6.1875 C-5.79597656 6.71730469 -6.52945313 7.24710937 -7.28515625 7.79296875 C-7.85105469 8.19128906 -8.41695312 8.58960938 -9 9 C-8.23445316 4.5768405 -4.94434503 0 0 0 Z " fill="#202014" transform="translate(617,330)"/>
<path d="M0 0 C2.01822917 0.06510417 4.03645833 0.13020833 6.0546875 0.1953125 C4.7346875 0.5253125 3.4146875 0.8553125 2.0546875 1.1953125 C2.3846875 2.1853125 2.7146875 3.1753125 3.0546875 4.1953125 C0.7446875 3.5353125 -1.5653125 2.8753125 -3.9453125 2.1953125 C-1.9453125 0.1953125 -1.9453125 0.1953125 0 0 Z " fill="#CAA418" transform="translate(820.9453125,278.8046875)"/>
</svg>
